# xmcd
#
# Track frame offsets: 
#        150
#        13390
#        29002
#        42782
#        60698
#        76216
#        91699
#        112199
#        125309
#        143858
#
# Disc length: 2099 seconds
#
# Revision: 0
# Processed by: cddbd v1.5.2PL0 Copyright (c) Steve Scherf et al.
# Submitted via: ExactAudioCopy v1.0b1
#
DISCID=8308310a
DTITLE=The SteelDrivers - Hammer Down
DYEAR=2013
DGENRE=Country
TTITLE0=Shallow Grave
TTITLE1=How Long Have I Been Your Fool
TTITLE2=When You Don't Come Home
TTITLE3=I'll Be There
TTITLE4=Burnin' The Woodshed Down
TTITLE5=Wearin' A Hole
TTITLE6=Lonesome Goodbye
TTITLE7=Hell on Wheels
TTITLE8=Cry No Mississippi
TTITLE9=When I'm Gone
EXTD=
EXTT0=
EXTT1=
EXTT2=
EXTT3=
EXTT4=
EXTT5=
EXTT6=
EXTT7=
EXTT8=
EXTT9=
PLAYORDER=
